<svg xmlns="http://www.w3.org/2000/svg" viewBox="0 0 800 600" role="img" aria-label="Abstract vector illustration for distributed architecture">
  <defs><linearGradient id="b" x1="0" x2="1" y1="0" y2="1"><stop offset="0" stop-color="#5d86db"/><stop offset="1" stop-color="#113166"/></linearGradient><linearGradient id="c" x1="0" x2="1" y1="0" y2="1"><stop offset="0" stop-color="#ff9c61"/><stop offset="1" stop-color="#ff653d"/></linearGradient></defs>
  <rect width="800" height="600" rx="34" fill="#fffaf5"/>
  <ellipse cx="190" cy="265" rx="105" ry="33" fill="#dce9f8"/><ellipse cx="594" cy="236" rx="105" ry="33" fill="#dce9f8"/><ellipse cx="400" cy="502" rx="112" ry="33" fill="#dce9f8"/>
  <path d="M210 245 C330 175 495 190 580 235" fill="none" stroke="#092654" stroke-width="4" stroke-dasharray="9 14"/>
  <path d="M210 303 C250 385 308 438 380 467" fill="none" stroke="#092654" stroke-width="4" stroke-dasharray="9 14"/>
  <path d="M580 291 C535 380 480 434 420 467" fill="none" stroke="#092654" stroke-width="4" stroke-dasharray="9 14"/>
  <path d="M206 180l-82 48v95l82 48 82-48v-95z" fill="url(#c)" stroke="#092654" stroke-width="4"/>
  <path d="M124 228l82 48 82-48M206 276v95" fill="none" stroke="#092654" stroke-width="4"/>
  <path d="M594 140l-82 48v95l82 48 82-48v-95z" fill="url(#b)" stroke="#092654" stroke-width="4"/>
  <path d="M512 188l82 48 82-48M594 236v95" fill="none" stroke="#092654" stroke-width="4"/>
  <path d="M400 377l-82 48v95l82 48 82-48v-95z" fill="#14356d" stroke="#092654" stroke-width="4"/>
  <path d="M318 425l82 48 82-48M400 473v95" fill="none" stroke="#092654" stroke-width="4"/>
  <g stroke="#fffaf5" stroke-width="4" stroke-linecap="round"><path d="M213 278h42M213 298h30M604 238h42M604 258h30M410 473h42M410 493h30"/></g>
  <circle cx="390" cy="310" r="60" fill="#edf3fa" stroke="#d4e2f2" stroke-width="4"/>
  <path d="M330 310h120M390 250c30 37 30 83 0 120M390 250c-30 37-30 83 0 120M340 280h100M340 340h100" stroke="#c1d4eb" stroke-width="3" fill="none"/>
  <circle cx="246" cy="396" r="8" fill="#426fc4"/><circle cx="580" cy="372" r="14" fill="#ff734d" stroke="#092654" stroke-width="4"/><circle cx="553" cy="459" r="14" fill="#426fc4" stroke="#092654" stroke-width="4"/>
  <g fill="#14356d"><circle cx="162" cy="468" r="3"/><circle cx="192" cy="468" r="3"/><circle cx="222" cy="468" r="3"/><circle cx="162" cy="498" r="3"/><circle cx="192" cy="498" r="3"/><circle cx="222" cy="498" r="3"/></g>
  <g stroke="#092654" stroke-width="4" stroke-linecap="round"><path d="M620 78h70M650 98h70M625 118h45M575 425h80M605 445h55"/></g>
</svg>
