<svg xmlns="http://www.w3.org/2000/svg" viewBox="0 0 800 600" role="img" aria-label="Abstract vector illustration for monolithic architecture">
  <defs><linearGradient id="b" x1="0" x2="1" y1="0" y2="1"><stop offset="0" stop-color="#dce9f8"/><stop offset="1" stop-color="#c5d9f3"/></linearGradient><linearGradient id="c" x1="0" x2="1" y1="0" y2="1"><stop offset="0" stop-color="#ff9c61"/><stop offset="1" stop-color="#ff653d"/></linearGradient><filter id="s"><feDropShadow dx="0" dy="12" stdDeviation="14" flood-color="#0b2757" flood-opacity="0.12"/></filter></defs>
  <rect width="800" height="600" rx="34" fill="#fffaf5"/>
  <circle cx="595" cy="190" r="112" fill="url(#b)"/>
  <ellipse cx="442" cy="507" rx="210" ry="38" fill="#dce9f8"/>
  <g filter="url(#s)">
    <path d="M240 205h315l88-62H330z" fill="#eaf2fb" stroke="#092654" stroke-width="4" stroke-linejoin="round"/>
    <path d="M240 205v260h315V205z" fill="#fffaf5" stroke="#092654" stroke-width="4"/>
    <path d="M555 205l88-62v260l-88 62z" fill="#dce9f8" stroke="#092654" stroke-width="4" stroke-linejoin="round"/>
  </g>
  <g stroke="#092654" stroke-width="5" stroke-linecap="round"><path d="M68 245h110"/><path d="M68 325h110"/><path d="M68 405h110"/><path d="M178 245l24 22 0-44z" fill="#092654"/><path d="M178 325l24 22 0-44z" fill="#092654"/><path d="M178 405l24 22 0-44z" fill="#092654"/></g>
  <rect x="306" y="275" width="70" height="70" rx="7" fill="#14356d"/>
  <circle cx="485" cy="310" r="43" fill="#4f7ed4"/>
  <path d="M382 310h56" stroke="#092654" stroke-width="4" stroke-linecap="round" stroke-dasharray="8 16"/>
  <path d="M342 345v63" stroke="#092654" stroke-width="4" stroke-dasharray="8 16"/>
  <path d="M485 353v60" stroke="#092654" stroke-width="4" stroke-dasharray="8 16"/>
  <path d="M341 412l54 32 55-32v-63l-55-31-54 31z" fill="url(#c)"/>
  <path d="M487 410l48 84h-96z" fill="#092654"/>
  <path d="M395 444h92" stroke="#092654" stroke-width="4" stroke-dasharray="8 16"/>
  <circle cx="695" cy="103" r="27" fill="url(#c)"/>
  <g fill="#14356d"><circle cx="125" cy="120" r="3"/><circle cx="155" cy="120" r="3"/><circle cx="185" cy="120" r="3"/><circle cx="125" cy="150" r="3"/><circle cx="155" cy="150" r="3"/><circle cx="185" cy="150" r="3"/><circle cx="125" cy="180" r="3"/><circle cx="155" cy="180" r="3"/><circle cx="185" cy="180" r="3"/></g>
  <g stroke="#092654" stroke-width="4" stroke-linecap="round" stroke-dasharray="5 18"><path d="M707 310v90"/></g>
</svg>
