<svg xmlns="http://www.w3.org/2000/svg" viewBox="0 0 800 600" role="img" aria-label="Abstract vector illustration for fundamental concepts">
  <defs>
    <linearGradient id="blue" x1="0" x2="1" y1="0" y2="1"><stop offset="0" stop-color="#5c87da"/><stop offset="1" stop-color="#14356d"/></linearGradient>
    <linearGradient id="coral" x1="0" x2="1" y1="0" y2="1"><stop offset="0" stop-color="#ff9a5c"/><stop offset="1" stop-color="#ff653d"/></linearGradient>
    <filter id="shadow" x="-20%" y="-20%" width="140%" height="140%"><feDropShadow dx="0" dy="10" stdDeviation="12" flood-color="#0b2757" flood-opacity="0.12"/></filter>
  </defs>
  <rect width="800" height="600" rx="34" fill="#fffaf5"/>
  <circle cx="410" cy="285" r="180" fill="#dce9f8"/>
  <circle cx="280" cy="235" r="80" fill="#eef5fb" stroke="#092654" stroke-width="3"/>
  <path d="M188 161c48-46 117-45 166 1" fill="none" stroke="#092654" stroke-width="3" stroke-linecap="round" stroke-dasharray="76 20 8 20"/>
  <path d="M515 315c56-33 126-25 172 23" fill="none" stroke="#092654" stroke-width="3" stroke-linecap="round" stroke-dasharray="8 18"/>
  <circle cx="412" cy="262" r="88" fill="url(#coral)" filter="url(#shadow)"/>
  <path d="M365 325c-18-31-45-62-45-105 0-53 42-96 94-96s94 43 94 96c0 43-28 74-46 105" fill="url(#coral)"/>
  <rect x="352" y="340" width="124" height="22" rx="11" fill="#14356d"/>
  <rect x="362" y="370" width="104" height="20" rx="10" fill="#0b2757"/>
  <rect x="377" y="398" width="74" height="20" rx="10" fill="#14356d"/>
  <path d="M382 318V245c0-19-29-20-29 0 0 25 38 30 61 30s61-5 61-30c0-20-29-19-29 0v73" fill="none" stroke="#fffaf5" stroke-width="7" stroke-linecap="round" stroke-linejoin="round"/>
  <g transform="translate(150 352)">
    <circle cx="0" cy="0" r="48" fill="#14356d"/>
    <circle cx="0" cy="0" r="20" fill="#fffaf5"/>
    <g fill="#14356d">
      <rect x="-9" y="-82" width="18" height="34" rx="3"/><rect x="-9" y="48" width="18" height="34" rx="3"/>
      <rect x="48" y="-9" width="34" height="18" rx="3"/><rect x="-82" y="-9" width="34" height="18" rx="3"/>
      <rect x="38" y="38" width="30" height="18" rx="3" transform="rotate(45 53 47)"/><rect x="-68" y="38" width="30" height="18" rx="3" transform="rotate(-45 -53 47)"/>
      <rect x="38" y="-56" width="30" height="18" rx="3" transform="rotate(-45 53 -47)"/><rect x="-68" y="-56" width="30" height="18" rx="3" transform="rotate(45 -53 -47)"/>
    </g>
  </g>
  <path d="M103 502c84-31 174-35 265 0 91-35 181-31 265 0v36c-85-24-174-28-265 7-91-35-180-31-265-7z" fill="#eef5fb" stroke="#092654" stroke-width="5" stroke-linejoin="round"/>
  <path d="M368 502v43" stroke="#092654" stroke-width="5" stroke-linecap="round"/>
  <path d="M140 517c58-13 126-14 194 2M402 519c68-16 136-15 194-2" stroke="#8da9ce" stroke-width="3" stroke-linecap="round"/>
  <circle cx="110" cy="260" r="11" fill="#092654"/><circle cx="592" cy="120" r="13" fill="#426fc4"/><circle cx="705" cy="282" r="8" fill="#f8a041"/>
  <rect x="608" y="214" width="38" height="38" fill="none" stroke="#092654" stroke-width="4"/>
  <g fill="#0b2757"><circle cx="112" cy="321" r="3"/><circle cx="112" cy="341" r="3"/><circle cx="112" cy="361" r="3"/><circle cx="112" cy="381" r="3"/></g>
  <g fill="#ff734d"><circle cx="634" cy="368" r="3"/><circle cx="654" cy="368" r="3"/><circle cx="674" cy="368" r="3"/><circle cx="634" cy="388" r="3"/><circle cx="654" cy="388" r="3"/><circle cx="674" cy="388" r="3"/></g>
</svg>
